<svg xmlns="http://www.w3.org/2000/svg" width="100" height="240">
  <rect x="10" y="10" width="30" height="30" stroke="#f00" stroke-width="3" fill="#0000" />
  <rect x="60" y="10" width="30" height="30" rx="10" ry="10" stroke="#f00" stroke-width="3" fill="#0000" />

  <circle cx="25" cy="70" r="15" stroke="#ff0" stroke-width="3" fill="#0000" />
  <ellipse cx="70" cy="70" rx="20" ry="15" stroke="#ff0" stroke-width="3" fill="#0000" />

  <line x1="10" y1="100" x2="40" y2="120" stroke="#0f0" stroke-width="3" />
  <polyline points="60 100 70 100 70 110 80 110 80 120 90 120" stroke="#0f0" stroke-width="3" fill="#0000" />

  <polygon points="8 145 20 145 25 132 30 145 42 145 33 153 37 165 25 157 13 165 17 153" stroke="#0ff" stroke-width="2"
    fill="#0000" />

  <path d="M20,170 Q40,205 50,170 T90,170" stroke="#00f" stroke-width="3" fill="none" />
</svg>
