<!-- <?xml version="1.0" standalone="no"?> -->
<?xml-stylesheet type="text/css" href="./style.css"?>

<svg xmlns="http://www.w3.org/2000/svg">
  <path d="M10 10 L50 10 L50 50 L10 50 L10 10" class="red" stroke-linecap="" stroke-linejoin="bevel"
    stroke-dasharray="8 3 1" />
  <path d="M60 10 L100 10 L100 50 L60 50 Z" class="red" />
  <path d="M110 10 H150 V50 H110 Z" class="red" />
  <path d="M160 10 h40 v40 h-40 z" class="red" />

  <path d="M60 80 C80 40 80 120 100 80" class="yellow" />
  <path d="M110 80 C115 65 125 65 130 80 S145 95 150 80" class="yellow" />

  <path d="M60 120 Q80 90 100 120" class="yellow" />
  <path d="M110 120 Q120 100 130 120 T150 120" class="yellow trans" />
  <path d="M160 120 Q170 100 180 120 T200 120" class="trans" style="stroke: black; fill: red;" />
</svg>
